<svg width="65" height="64" viewBox="0 0 65 64" fill="none" xmlns="http://www.w3.org/2000/svg">
<ellipse cx="32.6847" cy="32.0561" rx="31.8424" ry="31.528" fill="#2E331F" fill-opacity="0.8"/>
<path opacity="0.5" d="M26.3333 24C25.9797 24 25.6406 23.8595 25.3905 23.6095C25.1405 23.3594 25 23.0203 25 22.6667V20C25 19.6464 25.1405 19.3072 25.3905 19.0572C25.6406 18.8071 25.9797 18.6667 26.3333 18.6667C26.687 18.6667 27.0261 18.8071 27.2761 19.0572C27.5262 19.3072 27.6667 19.6464 27.6667 20V22.6667C27.6667 23.0201 27.5264 23.359 27.2766 23.609C27.0269 23.859 26.6881 23.9997 26.3347 24H26.3333ZM39.6667 24C39.313 24 38.9739 23.8595 38.7239 23.6095C38.4738 23.3594 38.3333 23.0203 38.3333 22.6667V20C38.3333 19.6464 38.4738 19.3072 38.7239 19.0572C38.9739 18.8071 39.313 18.6667 39.6667 18.6667C40.0203 18.6667 40.3594 18.8071 40.6095 19.0572C40.8595 19.3072 41 19.6464 41 20V22.6667C41 23.0201 40.8597 23.359 40.6099 23.609C40.3602 23.859 40.0214 23.9997 39.668 24H39.6667Z" fill="#FFC400"/>
<path d="M42.3332 21.3333H40.9998V22.6667C40.9998 23.0203 40.8594 23.3594 40.6093 23.6095C40.3593 23.8595 40.0201 24 39.6665 24C39.3129 24 38.9737 23.8595 38.7237 23.6095C38.4736 23.3594 38.3332 23.0203 38.3332 22.6667V21.3333H27.6665V22.6667C27.6665 23.0203 27.526 23.3594 27.276 23.6095C27.0259 23.8595 26.6868 24 26.3332 24C25.9795 24 25.6404 23.8595 25.3904 23.6095C25.1403 23.3594 24.9998 23.0203 24.9998 22.6667V21.3333H23.6665C22.6056 21.3333 21.5882 21.7548 20.8381 22.5049C20.0879 23.255 19.6665 24.2725 19.6665 25.3333V28H46.3332V25.3333C46.3332 24.2725 45.9117 23.255 45.1616 22.5049C44.4115 21.7548 43.394 21.3333 42.3332 21.3333Z" fill="#FFC400"/>
<path d="M26.3333 34.6667C27.0697 34.6667 27.6667 34.0697 27.6667 33.3333C27.6667 32.597 27.0697 32 26.3333 32C25.597 32 25 32.597 25 33.3333C25 34.0697 25.597 34.6667 26.3333 34.6667Z" fill="#FFC400"/>
<path d="M26.3333 40C27.0697 40 27.6667 39.403 27.6667 38.6667C27.6667 37.9303 27.0697 37.3333 26.3333 37.3333C25.597 37.3333 25 37.9303 25 38.6667C25 39.403 25.597 40 26.3333 40Z" fill="#FFC400"/>
<path d="M32.9998 34.6667C33.7362 34.6667 34.3332 34.0697 34.3332 33.3333C34.3332 32.597 33.7362 32 32.9998 32C32.2635 32 31.6665 32.597 31.6665 33.3333C31.6665 34.0697 32.2635 34.6667 32.9998 34.6667Z" fill="#FFC400"/>
<path d="M32.9998 40C33.7362 40 34.3332 39.403 34.3332 38.6667C34.3332 37.9303 33.7362 37.3333 32.9998 37.3333C32.2635 37.3333 31.6665 37.9303 31.6665 38.6667C31.6665 39.403 32.2635 40 32.9998 40Z" fill="#FFC400"/>
<path d="M39.6668 34.6667C40.4032 34.6667 41.0002 34.0697 41.0002 33.3333C41.0002 32.597 40.4032 32 39.6668 32C38.9304 32 38.3335 32.597 38.3335 33.3333C38.3335 34.0697 38.9304 34.6667 39.6668 34.6667Z" fill="#FFC400"/>
<path d="M39.6668 40C40.4032 40 41.0002 39.403 41.0002 38.6667C41.0002 37.9303 40.4032 37.3333 39.6668 37.3333C38.9304 37.3333 38.3335 37.9303 38.3335 38.6667C38.3335 39.403 38.9304 40 39.6668 40Z" fill="#FFC400"/>
<path opacity="0.5" d="M19.6665 28V41.3333C19.6665 42.3942 20.0879 43.4116 20.8381 44.1618C21.5882 44.9119 22.6056 45.3333 23.6665 45.3333H42.3332C43.394 45.3333 44.4115 44.9119 45.1616 44.1618C45.9117 43.4116 46.3332 42.3942 46.3332 41.3333V28H19.6665ZM26.3332 40C25.9795 40 25.6404 39.8595 25.3904 39.6095C25.1403 39.3594 24.9998 39.0203 24.9998 38.6667C24.9998 38.313 25.1403 37.9739 25.3904 37.7239C25.6404 37.4738 25.9795 37.3333 26.3332 37.3333C26.6868 37.3333 27.0259 37.4738 27.276 37.7239C27.526 37.9739 27.6665 38.313 27.6665 38.6667C27.6665 39.0203 27.526 39.3594 27.276 39.6095C27.0259 39.8595 26.6868 40 26.3332 40ZM26.3332 34.6667C25.9795 34.6667 25.6404 34.5262 25.3904 34.2761C25.1403 34.0261 24.9998 33.687 24.9998 33.3333C24.9998 32.9797 25.1403 32.6406 25.3904 32.3905C25.6404 32.1405 25.9795 32 26.3332 32C26.6868 32 27.0259 32.1405 27.276 32.3905C27.526 32.6406 27.6665 32.9797 27.6665 33.3333C27.6665 33.687 27.526 34.0261 27.276 34.2761C27.0259 34.5262 26.6868 34.6667 26.3332 34.6667ZM32.9998 40C32.6462 40 32.3071 39.8595 32.057 39.6095C31.807 39.3594 31.6665 39.0203 31.6665 38.6667C31.6665 38.313 31.807 37.9739 32.057 37.7239C32.3071 37.4738 32.6462 37.3333 32.9998 37.3333C33.3535 37.3333 33.6926 37.4738 33.9426 37.7239C34.1927 37.9739 34.3332 38.313 34.3332 38.6667C34.3332 39.0203 34.1927 39.3594 33.9426 39.6095C33.6926 39.8595 33.3535 40 32.9998 40ZM32.9998 34.6667C32.6462 34.6667 32.3071 34.5262 32.057 34.2761C31.807 34.0261 31.6665 33.687 31.6665 33.3333C31.6665 32.9797 31.807 32.6406 32.057 32.3905C32.3071 32.1405 32.6462 32 32.9998 32C33.3535 32 33.6926 32.1405 33.9426 32.3905C34.1927 32.6406 34.3332 32.9797 34.3332 33.3333C34.3332 33.687 34.1927 34.0261 33.9426 34.2761C33.6926 34.5262 33.3535 34.6667 32.9998 34.6667ZM39.6665 40C39.3129 40 38.9737 39.8595 38.7237 39.6095C38.4736 39.3594 38.3332 39.0203 38.3332 38.6667C38.3332 38.313 38.4736 37.9739 38.7237 37.7239C38.9737 37.4738 39.3129 37.3333 39.6665 37.3333C40.0201 37.3333 40.3593 37.4738 40.6093 37.7239C40.8594 37.9739 40.9998 38.313 40.9998 38.6667C40.9998 39.0203 40.8594 39.3594 40.6093 39.6095C40.3593 39.8595 40.0201 40 39.6665 40ZM39.6665 34.6667C39.3129 34.6667 38.9737 34.5262 38.7237 34.2761C38.4736 34.0261 38.3332 33.687 38.3332 33.3333C38.3332 32.9797 38.4736 32.6406 38.7237 32.3905C38.9737 32.1405 39.3129 32 39.6665 32C40.0201 32 40.3593 32.1405 40.6093 32.3905C40.8594 32.6406 40.9998 32.9797 40.9998 33.3333C40.9998 33.687 40.8594 34.0261 40.6093 34.2761C40.3593 34.5262 40.0201 34.6667 39.6665 34.6667Z" fill="#FFC400"/>
</svg>
